G04 #@! TF.FileFunction,Copper,L2,Bot,Signal*
%FSLAX46Y46*%
G04 Gerber Fmt 4.6, Leading zero omitted, Abs format (unit mm)*
G04 Created by KiCad (PCBNEW 0.201505300414+5690~23~ubuntu14.04.1-product) date Sat 27 Jun 2015 05:42:46 PM PDT*
%MOMM*%
G01*
G04 APERTURE LIST*
%ADD10C,0.100000*%
%ADD11R,1.250000X1.000000*%
%ADD12R,2.032000X1.727200*%
%ADD13O,2.032000X1.727200*%
%ADD14C,0.600000*%
%ADD15C,0.250000*%
%ADD16C,0.254000*%
G04 APERTURE END LIST*
D10*
D11*
X138684000Y-103108000D03*
X138684000Y-101108000D03*
D12*
X135890000Y-118110000D03*
D13*
X135890000Y-115570000D03*
X135890000Y-113030000D03*
X135890000Y-110490000D03*
X135890000Y-107950000D03*
X135890000Y-105410000D03*
X135890000Y-102870000D03*
X135890000Y-100330000D03*
X135890000Y-97790000D03*
X135890000Y-95250000D03*
D12*
X148590000Y-95250000D03*
D13*
X148590000Y-97790000D03*
X148590000Y-100330000D03*
X148590000Y-102870000D03*
X148590000Y-105410000D03*
X148590000Y-107950000D03*
X148590000Y-110490000D03*
X148590000Y-113030000D03*
X148590000Y-115570000D03*
X148590000Y-118110000D03*
D14*
X138176000Y-104394000D03*
X141224000Y-98044000D03*
X141224000Y-114300000D03*
D15*
X138176000Y-103616000D02*
X138684000Y-103108000D01*
X138176000Y-104394000D02*
X138176000Y-103616000D01*
X141224000Y-114300000D02*
X141224000Y-98044000D01*
X140970000Y-97790000D02*
X141224000Y-98044000D01*
X140970000Y-97790000D02*
X135890000Y-97790000D01*
D16*
G36*
X147775604Y-119457000D02*
X137326329Y-119457000D01*
X137360927Y-119434273D01*
X137503377Y-119223240D01*
X137553440Y-118973600D01*
X137553440Y-117246400D01*
X137506463Y-117004277D01*
X137366673Y-116791473D01*
X137155640Y-116649023D01*
X137117037Y-116641281D01*
X137134415Y-116629670D01*
X137459271Y-116143489D01*
X137573345Y-115570000D01*
X137459271Y-114996511D01*
X137134415Y-114510330D01*
X136819634Y-114300000D01*
X137134415Y-114089670D01*
X137459271Y-113603489D01*
X137573345Y-113030000D01*
X137459271Y-112456511D01*
X137134415Y-111970330D01*
X136819634Y-111760000D01*
X137134415Y-111549670D01*
X137459271Y-111063489D01*
X137573345Y-110490000D01*
X137459271Y-109916511D01*
X137134415Y-109430330D01*
X136819634Y-109220000D01*
X137134415Y-109009670D01*
X137459271Y-108523489D01*
X137573345Y-107950000D01*
X137459271Y-107376511D01*
X137134415Y-106890330D01*
X136819634Y-106680000D01*
X137134415Y-106469670D01*
X137459271Y-105983489D01*
X137573345Y-105410000D01*
X137499750Y-105040014D01*
X137645673Y-105186192D01*
X137989201Y-105328838D01*
X138361167Y-105329162D01*
X138704943Y-105187117D01*
X138968192Y-104924327D01*
X139110838Y-104580799D01*
X139111121Y-104255440D01*
X139309000Y-104255440D01*
X139551123Y-104208463D01*
X139763927Y-104068673D01*
X139906377Y-103857640D01*
X139956440Y-103608000D01*
X139956440Y-102608000D01*
X139909463Y-102365877D01*
X139769673Y-102153073D01*
X139705362Y-102109662D01*
X139847327Y-101967698D01*
X139944000Y-101734309D01*
X139944000Y-101393750D01*
X139944000Y-100822250D01*
X139944000Y-100481691D01*
X139847327Y-100248302D01*
X139668699Y-100069673D01*
X139435310Y-99973000D01*
X139182691Y-99973000D01*
X138969750Y-99973000D01*
X138811000Y-100131750D01*
X138811000Y-100981000D01*
X139785250Y-100981000D01*
X139944000Y-100822250D01*
X139944000Y-101393750D01*
X139785250Y-101235000D01*
X138811000Y-101235000D01*
X138811000Y-101255000D01*
X138557000Y-101255000D01*
X138557000Y-101235000D01*
X137582750Y-101235000D01*
X137424000Y-101393750D01*
X137424000Y-101734309D01*
X137520673Y-101967698D01*
X137662150Y-102109176D01*
X137604073Y-102147327D01*
X137469308Y-102346973D01*
X137459271Y-102296511D01*
X137134415Y-101810330D01*
X136819634Y-101600000D01*
X137134415Y-101389670D01*
X137459271Y-100903489D01*
X137466897Y-100865147D01*
X137582750Y-100981000D01*
X138557000Y-100981000D01*
X138557000Y-100131750D01*
X138398250Y-99973000D01*
X138185309Y-99973000D01*
X137932690Y-99973000D01*
X137699301Y-100069673D01*
X137551051Y-100217923D01*
X137459271Y-99756511D01*
X137134415Y-99270330D01*
X136824930Y-99063539D01*
X137240732Y-98692036D01*
X137494709Y-98164791D01*
X137497358Y-98149026D01*
X137376217Y-97917000D01*
X136017000Y-97917000D01*
X136017000Y-97937000D01*
X135763000Y-97937000D01*
X135763000Y-97917000D01*
X135743000Y-97917000D01*
X135743000Y-97663000D01*
X135763000Y-97663000D01*
X135763000Y-97643000D01*
X136017000Y-97643000D01*
X136017000Y-97663000D01*
X137376217Y-97663000D01*
X137497358Y-97430974D01*
X137494709Y-97415209D01*
X137240732Y-96887964D01*
X136824930Y-96516460D01*
X137134415Y-96309670D01*
X137459271Y-95823489D01*
X137573345Y-95250000D01*
X137459271Y-94676511D01*
X137134415Y-94190330D01*
X136704395Y-93903000D01*
X147153670Y-93903000D01*
X147119073Y-93925727D01*
X146976623Y-94136760D01*
X146926560Y-94386400D01*
X146926560Y-96113600D01*
X146973537Y-96355723D01*
X147113327Y-96568527D01*
X147324360Y-96710977D01*
X147362962Y-96718718D01*
X147345585Y-96730330D01*
X147020729Y-97216511D01*
X146906655Y-97790000D01*
X147020729Y-98363489D01*
X147345585Y-98849670D01*
X147660365Y-99060000D01*
X147345585Y-99270330D01*
X147020729Y-99756511D01*
X146906655Y-100330000D01*
X147020729Y-100903489D01*
X147345585Y-101389670D01*
X147660365Y-101600000D01*
X147345585Y-101810330D01*
X147020729Y-102296511D01*
X146906655Y-102870000D01*
X147020729Y-103443489D01*
X147345585Y-103929670D01*
X147660365Y-104140000D01*
X147345585Y-104350330D01*
X147020729Y-104836511D01*
X146906655Y-105410000D01*
X147020729Y-105983489D01*
X147345585Y-106469670D01*
X147660365Y-106680000D01*
X147345585Y-106890330D01*
X147020729Y-107376511D01*
X146906655Y-107950000D01*
X147020729Y-108523489D01*
X147345585Y-109009670D01*
X147660365Y-109220000D01*
X147345585Y-109430330D01*
X147020729Y-109916511D01*
X146906655Y-110490000D01*
X147020729Y-111063489D01*
X147345585Y-111549670D01*
X147660365Y-111760000D01*
X147345585Y-111970330D01*
X147020729Y-112456511D01*
X146906655Y-113030000D01*
X147020729Y-113603489D01*
X147345585Y-114089670D01*
X147660365Y-114300000D01*
X147345585Y-114510330D01*
X147020729Y-114996511D01*
X146906655Y-115570000D01*
X147020729Y-116143489D01*
X147345585Y-116629670D01*
X147660365Y-116840000D01*
X147345585Y-117050330D01*
X147020729Y-117536511D01*
X146906655Y-118110000D01*
X147020729Y-118683489D01*
X147345585Y-119169670D01*
X147775604Y-119457000D01*
X147775604Y-119457000D01*
G37*
X147775604Y-119457000D02*
X137326329Y-119457000D01*
X137360927Y-119434273D01*
X137503377Y-119223240D01*
X137553440Y-118973600D01*
X137553440Y-117246400D01*
X137506463Y-117004277D01*
X137366673Y-116791473D01*
X137155640Y-116649023D01*
X137117037Y-116641281D01*
X137134415Y-116629670D01*
X137459271Y-116143489D01*
X137573345Y-115570000D01*
X137459271Y-114996511D01*
X137134415Y-114510330D01*
X136819634Y-114300000D01*
X137134415Y-114089670D01*
X137459271Y-113603489D01*
X137573345Y-113030000D01*
X137459271Y-112456511D01*
X137134415Y-111970330D01*
X136819634Y-111760000D01*
X137134415Y-111549670D01*
X137459271Y-111063489D01*
X137573345Y-110490000D01*
X137459271Y-109916511D01*
X137134415Y-109430330D01*
X136819634Y-109220000D01*
X137134415Y-109009670D01*
X137459271Y-108523489D01*
X137573345Y-107950000D01*
X137459271Y-107376511D01*
X137134415Y-106890330D01*
X136819634Y-106680000D01*
X137134415Y-106469670D01*
X137459271Y-105983489D01*
X137573345Y-105410000D01*
X137499750Y-105040014D01*
X137645673Y-105186192D01*
X137989201Y-105328838D01*
X138361167Y-105329162D01*
X138704943Y-105187117D01*
X138968192Y-104924327D01*
X139110838Y-104580799D01*
X139111121Y-104255440D01*
X139309000Y-104255440D01*
X139551123Y-104208463D01*
X139763927Y-104068673D01*
X139906377Y-103857640D01*
X139956440Y-103608000D01*
X139956440Y-102608000D01*
X139909463Y-102365877D01*
X139769673Y-102153073D01*
X139705362Y-102109662D01*
X139847327Y-101967698D01*
X139944000Y-101734309D01*
X139944000Y-101393750D01*
X139944000Y-100822250D01*
X139944000Y-100481691D01*
X139847327Y-100248302D01*
X139668699Y-100069673D01*
X139435310Y-99973000D01*
X139182691Y-99973000D01*
X138969750Y-99973000D01*
X138811000Y-100131750D01*
X138811000Y-100981000D01*
X139785250Y-100981000D01*
X139944000Y-100822250D01*
X139944000Y-101393750D01*
X139785250Y-101235000D01*
X138811000Y-101235000D01*
X138811000Y-101255000D01*
X138557000Y-101255000D01*
X138557000Y-101235000D01*
X137582750Y-101235000D01*
X137424000Y-101393750D01*
X137424000Y-101734309D01*
X137520673Y-101967698D01*
X137662150Y-102109176D01*
X137604073Y-102147327D01*
X137469308Y-102346973D01*
X137459271Y-102296511D01*
X137134415Y-101810330D01*
X136819634Y-101600000D01*
X137134415Y-101389670D01*
X137459271Y-100903489D01*
X137466897Y-100865147D01*
X137582750Y-100981000D01*
X138557000Y-100981000D01*
X138557000Y-100131750D01*
X138398250Y-99973000D01*
X138185309Y-99973000D01*
X137932690Y-99973000D01*
X137699301Y-100069673D01*
X137551051Y-100217923D01*
X137459271Y-99756511D01*
X137134415Y-99270330D01*
X136824930Y-99063539D01*
X137240732Y-98692036D01*
X137494709Y-98164791D01*
X137497358Y-98149026D01*
X137376217Y-97917000D01*
X136017000Y-97917000D01*
X136017000Y-97937000D01*
X135763000Y-97937000D01*
X135763000Y-97917000D01*
X135743000Y-97917000D01*
X135743000Y-97663000D01*
X135763000Y-97663000D01*
X135763000Y-97643000D01*
X136017000Y-97643000D01*
X136017000Y-97663000D01*
X137376217Y-97663000D01*
X137497358Y-97430974D01*
X137494709Y-97415209D01*
X137240732Y-96887964D01*
X136824930Y-96516460D01*
X137134415Y-96309670D01*
X137459271Y-95823489D01*
X137573345Y-95250000D01*
X137459271Y-94676511D01*
X137134415Y-94190330D01*
X136704395Y-93903000D01*
X147153670Y-93903000D01*
X147119073Y-93925727D01*
X146976623Y-94136760D01*
X146926560Y-94386400D01*
X146926560Y-96113600D01*
X146973537Y-96355723D01*
X147113327Y-96568527D01*
X147324360Y-96710977D01*
X147362962Y-96718718D01*
X147345585Y-96730330D01*
X147020729Y-97216511D01*
X146906655Y-97790000D01*
X147020729Y-98363489D01*
X147345585Y-98849670D01*
X147660365Y-99060000D01*
X147345585Y-99270330D01*
X147020729Y-99756511D01*
X146906655Y-100330000D01*
X147020729Y-100903489D01*
X147345585Y-101389670D01*
X147660365Y-101600000D01*
X147345585Y-101810330D01*
X147020729Y-102296511D01*
X146906655Y-102870000D01*
X147020729Y-103443489D01*
X147345585Y-103929670D01*
X147660365Y-104140000D01*
X147345585Y-104350330D01*
X147020729Y-104836511D01*
X146906655Y-105410000D01*
X147020729Y-105983489D01*
X147345585Y-106469670D01*
X147660365Y-106680000D01*
X147345585Y-106890330D01*
X147020729Y-107376511D01*
X146906655Y-107950000D01*
X147020729Y-108523489D01*
X147345585Y-109009670D01*
X147660365Y-109220000D01*
X147345585Y-109430330D01*
X147020729Y-109916511D01*
X146906655Y-110490000D01*
X147020729Y-111063489D01*
X147345585Y-111549670D01*
X147660365Y-111760000D01*
X147345585Y-111970330D01*
X147020729Y-112456511D01*
X146906655Y-113030000D01*
X147020729Y-113603489D01*
X147345585Y-114089670D01*
X147660365Y-114300000D01*
X147345585Y-114510330D01*
X147020729Y-114996511D01*
X146906655Y-115570000D01*
X147020729Y-116143489D01*
X147345585Y-116629670D01*
X147660365Y-116840000D01*
X147345585Y-117050330D01*
X147020729Y-117536511D01*
X146906655Y-118110000D01*
X147020729Y-118683489D01*
X147345585Y-119169670D01*
X147775604Y-119457000D01*
M02*
