M48
;DRILL file {KiCad 0.201505300414+5690~23~ubuntu14.04.1-product} date Sat 27 Jun 2015 05:41:15 PM PDT
;FORMAT={-:-/ absolute / metric / decimal}
FMAT,2
METRIC,TZ
T1C0.400
T2C1.016
%
G90
G05
M71
T1
X138.176Y-104.394
X141.224Y-98.044
X141.224Y-114.3
T2
X135.89Y-95.25
X135.89Y-97.79
X135.89Y-100.33
X135.89Y-102.87
X135.89Y-105.41
X135.89Y-107.95
X135.89Y-110.49
X135.89Y-113.03
X135.89Y-115.57
X135.89Y-118.11
X148.59Y-95.25
X148.59Y-97.79
X148.59Y-100.33
X148.59Y-102.87
X148.59Y-105.41
X148.59Y-107.95
X148.59Y-110.49
X148.59Y-113.03
X148.59Y-115.57
X148.59Y-118.11
T0
M30
